HIERARCHY
ROOT Hips
{
  OFFSET 5.72205e-005 65.662 3.42586
  CHANNELS 6 Xposition Yposition Zposition Zrotation Xrotation Yrotation
  JOINT Chest
  {
    OFFSET 0 8.7983 -4.7612
    CHANNELS 3 Zrotation Xrotation Yrotation
    JOINT Chest2
    {
      OFFSET 0 8.0291 0.4195
      CHANNELS 3 Zrotation Xrotation Yrotation
      JOINT Chest3
      {
        OFFSET 0 9.9351 -2.2114
        CHANNELS 3 Zrotation Xrotation Yrotation
        JOINT Neck
        {
          OFFSET 0 22.3885 -0.4656
          CHANNELS 3 Zrotation Xrotation Yrotation
          JOINT Head
          {
            OFFSET -0.0001 12.643 3.4389
            CHANNELS 3 Zrotation Xrotation Yrotation
            End Site
            {
              OFFSET 0.0001 17.6655 0.5274
            }
          }
        }
        JOINT LeftCollar
        {
          OFFSET 2.2603 21.606 7.4023
          CHANNELS 3 Zrotation Xrotation Yrotation
          JOINT LeftShoulder
          {
            OFFSET 13.5163 -1.1332 -5.0146
            CHANNELS 3 Zrotation Xrotation Yrotation
            JOINT LeftElbow
            {
              OFFSET -0.0995 -28.05 -0.2431
              CHANNELS 3 Zrotation Xrotation Yrotation
              JOINT LeftWrist
              {
                OFFSET 0.0679 -23.3996 -0.1402
                CHANNELS 3 Zrotation Xrotation Yrotation
                JOINT LeftFinger1
                {
                  OFFSET 0.7932 -9.069 2.5189
                  CHANNELS 3 Zrotation Xrotation Yrotation
                  JOINT LeftFinger11
                  {
                    OFFSET -0.8272 -3.3923 0.5977
                    CHANNELS 3 Zrotation Xrotation Yrotation
                    JOINT LeftFinger12
                    {
                      OFFSET -0.5649 -2.3158 0.4082
                      CHANNELS 3 Zrotation Xrotation Yrotation
                      End Site
                      {
                        OFFSET -0.4919 -1.6479 0.2673
                      }
                    }
                  }
                }
                JOINT LeftFinger2
                {
                  OFFSET 0.9159 -9.2044 0.2193
                  CHANNELS 3 Zrotation Xrotation Yrotation
                  JOINT LeftFinger21
                  {
                    OFFSET 0.0117 -4.1944 -0.0248
                    CHANNELS 3 Zrotation Xrotation Yrotation
                    JOINT LeftFinger22
                    {
                      OFFSET 0.0071 -2.3249 -0.0142
                      CHANNELS 3 Zrotation Xrotation Yrotation
                      End Site
                      {
                        OFFSET -0.1475 -2.0882 0.0028
                      }
                    }
                  }
                }
                JOINT LeftFinger3
                {
                  OFFSET 0.6113 -8.7231 -2.0637
                  CHANNELS 3 Zrotation Xrotation Yrotation
                  JOINT LeftFinger31
                  {
                    OFFSET -0.1927 -3.8059 -0.2383
                    CHANNELS 3 Zrotation Xrotation Yrotation
                    JOINT LeftFinger32
                    {
                      OFFSET -0.1091 -2.1688 -0.1362
                      CHANNELS 3 Zrotation Xrotation Yrotation
                      End Site
                      {
                        OFFSET -0.2358 -1.9176 -0.0906
                      }
                    }
                  }
                }
                JOINT LeftFinger4
                {
                  OFFSET -0.6151 -8.0947 -3.5641
                  CHANNELS 3 Zrotation Xrotation Yrotation
                  JOINT LeftFinger41
                  {
                    OFFSET -0.4882 -2.341 -0.6462
                    CHANNELS 3 Zrotation Xrotation Yrotation
                    JOINT LeftFinger42
                    {
                      OFFSET -0.3575 -1.7167 -0.4742
                      CHANNELS 3 Zrotation Xrotation Yrotation
                      End Site
                      {
                        OFFSET -0.4187 -1.5237 -0.3496
                      }
                    }
                  }
                }
                JOINT LeftFinger0
                {
                  OFFSET -1.42 -1.8761 1.4223
                  CHANNELS 3 Zrotation Xrotation Yrotation
                  JOINT LeftFinger01
                  {
                    OFFSET -1.1471 -3.4929 2.6334
                    CHANNELS 3 Zrotation Xrotation Yrotation
                    JOINT LeftFinger02
                    {
                      OFFSET -0.823 -2.3 1.6571
                      CHANNELS 3 Zrotation Xrotation Yrotation
                      End Site
                      {
                        OFFSET -0.5822 -1.6914 1.1582
                      }
                    }
                  }
                }
              }
            }
          }
        }
        JOINT RightCollar
        {
          OFFSET -2.2603 21.606 7.4023
          CHANNELS 3 Zrotation Xrotation Yrotation
          JOINT RightShoulder
          {
            OFFSET -13.5187 -1.1334 -5.0155
            CHANNELS 3 Zrotation Xrotation Yrotation
            JOINT RightElbow
            {
              OFFSET 0.0994 -28.0499 -0.2431
              CHANNELS 3 Zrotation Xrotation Yrotation
              JOINT RightWrist
              {
                OFFSET -0.0679 -23.3996 -0.1402
                CHANNELS 3 Zrotation Xrotation Yrotation
                JOINT RightFinger1
                {
                  OFFSET -0.7932 -9.0691 2.5189
                  CHANNELS 3 Zrotation Xrotation Yrotation
                  JOINT RightFinger11
                  {
                    OFFSET 0.8272 -3.3923 0.5977
                    CHANNELS 3 Zrotation Xrotation Yrotation
                    JOINT RightFinger12
                    {
                      OFFSET 0.565 -2.3158 0.4082
                      CHANNELS 3 Zrotation Xrotation Yrotation
                      End Site
                      {
                        OFFSET 0.4919 -1.6479 0.2673
                      }
                    }
                  }
                }
                JOINT RightFinger2
                {
                  OFFSET -0.916 -9.2044 0.2193
                  CHANNELS 3 Zrotation Xrotation Yrotation
                  JOINT RightFinger21
                  {
                    OFFSET -0.0117 -4.1944 -0.0248
                    CHANNELS 3 Zrotation Xrotation Yrotation
                    JOINT RightFinger22
                    {
                      OFFSET -0.0071 -2.3249 -0.0142
                      CHANNELS 3 Zrotation Xrotation Yrotation
                      End Site
                      {
                        OFFSET 0.1475 -2.0882 0.0028
                      }
                    }
                  }
                }
                JOINT RightFinger3
                {
                  OFFSET -0.6113 -8.7231 -2.0637
                  CHANNELS 3 Zrotation Xrotation Yrotation
                  JOINT RightFinger31
                  {
                    OFFSET 0.1927 -3.8059 -0.2383
                    CHANNELS 3 Zrotation Xrotation Yrotation
                    JOINT RightFinger32
                    {
                      OFFSET 0.1091 -2.1688 -0.1362
                      CHANNELS 3 Zrotation Xrotation Yrotation
                      End Site
                      {
                        OFFSET 0.2358 -1.9176 -0.0906
                      }
                    }
                  }
                }
                JOINT RightFinger4
                {
                  OFFSET 0.6151 -8.0947 -3.564
                  CHANNELS 3 Zrotation Xrotation Yrotation
                  JOINT RightFinger41
                  {
                    OFFSET 0.4882 -2.341 -0.6462
                    CHANNELS 3 Zrotation Xrotation Yrotation
                    JOINT RightFinger42
                    {
                      OFFSET 0.3574 -1.7166 -0.4742
                      CHANNELS 3 Zrotation Xrotation Yrotation
                      End Site
                      {
                        OFFSET 0.4187 -1.5237 -0.3496
                      }
                    }
                  }
                }
                JOINT RightFinger0
                {
                  OFFSET 1.4199 -1.8761 1.4221
                  CHANNELS 3 Zrotation Xrotation Yrotation
                  JOINT RightFinger01
                  {
                    OFFSET 1.1472 -3.4929 2.6336
                    CHANNELS 3 Zrotation Xrotation Yrotation
                    JOINT RightFinger02
                    {
                      OFFSET 0.8229 -2.3 1.6571
                      CHANNELS 3 Zrotation Xrotation Yrotation
                      End Site
                      {
                        OFFSET 0.5822 -1.6914 1.1582
                      }
                    }
                  }
                }
              }
            }
          }
        }
      }
    }
  }
  JOINT RightHip
  {
    OFFSET -9.412 3.9771 -0.7758
    CHANNELS 3 Zrotation Xrotation Yrotation
    JOINT RightKnee
    {
      OFFSET -0.7531 -40.938 0
      CHANNELS 3 Zrotation Xrotation Yrotation
      JOINT RightAnkle
      {
        OFFSET 0 -40.1986 0
        CHANNELS 3 Zrotation Xrotation Yrotation
        JOINT RightToe
        {
          OFFSET 0 -4.4182 9.239
          CHANNELS 3 Zrotation Xrotation Yrotation
          End Site
          {
            OFFSET 0 0 6.1981
          }
        }
      }
    }
  }
  JOINT LeftHip
  {
    OFFSET 9.4119 3.9773 -0.7758
    CHANNELS 3 Zrotation Xrotation Yrotation
    JOINT LeftKnee
    {
      OFFSET 0.7532 -40.9383 0
      CHANNELS 3 Zrotation Xrotation Yrotation
      JOINT LeftAnkle
      {
        OFFSET 0 -40.1986 0
        CHANNELS 3 Zrotation Xrotation Yrotation
        JOINT LeftToe
        {
          OFFSET 0 -4.4182 9.239
          CHANNELS 3 Zrotation Xrotation Yrotation
          End Site
          {
            OFFSET 0 0 6.1981
          }
        }
      }
    }
  }
}
MOTION
Frames:	4
Frame Time:	0.0333333
-0.00826906 8.56561 8.26492 178.523 -72.9504 176.605 -0.685782 6.94229 -0.974803 -1.26558 13.895 -1.88616 -1.26559 13.895 -1.88616 -18.6156 12.2533 4.40505 -0.682353 -5.42608 -2.24342 26.2891 3.6207 -33.888 37.0401 -26.2596 -20.5898 19.8784 -38.9587 36.7381 -13.0486 -22.6348 29.8115 -9.00599e-006 1.78734e-006 -5.47732e-006 9.00598e-006 -1.78734e-006 5.47732e-006 -8.54535e-006 2.09843e-006 -6.19575e-006 -9.00599e-006 1.78734e-006 -5.47732e-006 -0.0128036 0.00232524 8.53103e-005 -2.5842e-015 -6.36111e-015 1.19271e-015 -9.00599e-006 1.78734e-006 -5.47732e-006 -0.0160072 0.00298316 0.00085392 3.97569e-016 -3.18055e-015 -1.59028e-015 -9.00599e-006 1.78734e-006 -5.47732e-006 -0.0125581 0.0031212 0.00282563 -6.65929e-015 0 -5.36719e-015 -9.00599e-006 1.78734e-006 -5.47732e-006 9.00598e-006 -1.78734e-006 5.47732e-006 -8.54535e-006 2.09843e-006 -6.19575e-006 -27.1975 3.47703 28.4339 -9.46635 -21.4482 23.1829 -19.4476 -41.2306 -16.3004 21.0816 -34.1738 -61.3923 -9.54166e-015 0 6.36111e-015 -0 0 3.18055e-015 -3.18055e-015 9.54166e-015 -0 -9.54166e-015 0 6.36111e-015 0.0129597 0.00231954 -8.46201e-005 -3.18055e-015 6.36111e-015 -0 -9.54166e-015 0 6.36111e-015 0.0163265 0.00304686 -0.000875862 1.59028e-014 -6.36111e-015 -3.18055e-015 -9.54166e-015 0 6.36111e-015 0.0145603 0.00367636 -0.00326501 3.18055e-015 -3.18055e-015 -0 -9.54166e-015 0 6.36111e-015 -0 0 3.18055e-015 -3.18055e-015 9.54166e-015 -0 3.68103 -11.8545 6.675 174.079 83.8731 -175.943 0.309326 20.1078 2.75765 1.11655e-008 -5.63231e-010 2.12913e-007 -3.68644 -11.9539 -6.69402 -174.125 83.8249 175.976 -0.322041 20.1598 -2.76385 7.8504e-009 -2.13084e-007 1.59877e-007 
-0.00826906 8.56561 8.26492 178.523 -72.9504 176.605 -0.685782 6.94229 -0.974803 -1.26558 13.895 -1.88616 -1.26559 13.895 -1.88616 -18.7062 12.2758 4.43077 -0.682354 -5.42608 -2.24342 26.2891 3.6207 -33.888 36.9588 -26.2388 -20.7269 20.1642 -38.9628 36.9619 -13.0894 -22.6794 29.9525 -9.54166e-015 3.18055e-015 -3.97569e-015 -5.36719e-015 -3.18055e-015 -2.78299e-015 -4.77083e-015 3.18055e-015 -3.57812e-015 -9.54166e-015 3.18055e-015 -3.97569e-015 -0.0127601 0.00231661 8.8695e-005 -1.39149e-015 0 -2.18663e-015 -9.54166e-015 3.18055e-015 -3.97569e-015 -0.0159935 0.00298827 0.000859799 3.37934e-015 -3.18055e-015 2.18663e-015 -9.54166e-015 3.18055e-015 -3.97569e-015 -0.0126229 0.00313092 0.00283712 -4.96962e-015 -1.27222e-014 -3.97569e-015 -9.54166e-015 3.18055e-015 -3.97569e-015 -5.36719e-015 -3.18055e-015 -2.78299e-015 -4.77083e-015 3.18055e-015 -3.57812e-015 -27.1975 3.47703 28.4339 -9.51207 -21.429 23.3217 -19.7444 -41.261 -16.6296 21.0816 -34.1738 -61.3923 4.36879e-007 -2.80814e-006 7.06996e-007 9.54166e-015 6.36111e-015 -3.18055e-015 9.88586e-007 -5.77213e-007 -3.18641e-006 4.36879e-007 -2.80814e-006 7.06996e-007 0.0129622 0.00231473 -9.30796e-005 -3.53113e-031 6.36111e-015 3.18055e-015 4.36879e-007 -2.80814e-006 7.06996e-007 0.016318 0.00304062 -0.000873375 -6.36111e-015 6.36111e-015 -0 4.36879e-007 -2.80814e-006 7.06996e-007 0.0145598 0.00366305 -0.00325347 6.36111e-015 -6.36111e-015 3.18055e-015 4.36879e-007 -2.80814e-006 7.06996e-007 9.54166e-015 6.36111e-015 -3.18055e-015 9.88586e-007 -5.77213e-007 -3.18641e-006 3.68103 -11.8545 6.675 174.079 83.8731 -175.943 0.309326 20.1078 2.75765 1.11655e-008 -5.63231e-010 2.12913e-007 -3.68644 -11.9539 -6.69402 -174.125 83.825 175.976 -0.322031 20.1598 -2.76386 -2.57804e-006 2.22612e-008 5.30243e-007 
-0.00826906 8.56561 8.26492 178.523 -72.9504 176.605 -0.685782 6.94229 -0.974803 -1.26558 13.895 -1.88616 -1.26559 13.895 -1.88616 -18.7968 12.2983 4.45652 -0.682358 -5.42608 -2.24341 26.2891 3.6207 -33.888 36.8733 -26.2185 -20.8658 20.4529 -38.964 37.1849 -13.1302 -22.7241 30.0934 -5.1684e-015 3.18055e-015 -2.38542e-015 -5.76476e-015 -6.36111e-015 1.59028e-015 -4.37326e-015 -1.27222e-014 1.98785e-015 -5.1684e-015 3.18055e-015 -2.38542e-015 -0.0128195 0.00231023 8.21235e-005 1.0493e-005 4.52941e-006 6.54994e-006 -5.1684e-015 3.18055e-015 -2.38542e-015 -0.0159981 0.00298332 0.000856436 1.34836e-006 4.47602e-006 2.78981e-006 -5.1684e-015 3.18055e-015 -2.38542e-015 -0.0125319 0.00311401 0.0028115 1.23246e-014 -3.18055e-015 1.39149e-015 -5.1684e-015 3.18055e-015 -2.38542e-015 -5.76476e-015 -6.36111e-015 1.59028e-015 -4.37326e-015 -1.27222e-014 1.98785e-015 -27.1975 3.47703 28.4339 -9.55769 -21.4099 23.4607 -20.042 -41.2901 -16.9593 21.0816 -34.1739 -61.3923 -3.18055e-015 0 -3.18055e-015 -1.39282e-005 9.10388e-006 2.23645e-006 -1.27222e-014 -9.54166e-015 -3.18055e-015 -3.18055e-015 0 -3.18055e-015 0.0129262 0.00231272 -9.02295e-005 -1.17502e-005 9.62874e-006 2.56278e-006 -3.18055e-015 0 -3.18055e-015 0.0163261 0.00303088 -0.000879 -1.27222e-014 3.18055e-015 3.18055e-015 -3.18055e-015 0 -3.18055e-015 0.014536 0.00367727 -0.00325624 5.97692e-007 2.439e-006 -4.59707e-006 -3.18055e-015 0 -3.18055e-015 -1.39282e-005 9.10388e-006 2.23645e-006 -1.27222e-014 -9.54166e-015 -3.18055e-015 3.68103 -11.8545 6.675 174.079 83.8731 -175.943 0.309326 20.1078 2.75765 1.11655e-008 -5.63231e-010 2.12913e-007 -3.68644 -11.9539 -6.69402 -174.125 83.825 175.976 -0.322031 20.1598 -2.76386 -2.57804e-006 2.22612e-008 5.30243e-007 
-0.00826906 8.56561 8.26492 178.523 -72.9504 176.605 -0.685782 6.94229 -0.974803 -1.26558 13.895 -1.88616 -1.26559 13.895 -1.88616 -18.8875 12.3208 4.48232 -0.682353 -5.42608 -2.24342 26.2891 3.6207 -33.888 36.8 -26.196 -20.9994 20.7341 -38.9699 37.4108 -13.1708 -22.7689 30.2345 9.52674e-006 1.98696e-006 4.63318e-006 -1.49499e-005 -5.17832e-006 -5.04997e-006 2.7938e-006 7.67564e-007 3.07023e-006 9.52674e-006 1.98696e-006 4.63318e-006 -0.0128233 0.00232368 8.0456e-005 -2.26823e-006 -4.46543e-006 -1.33874e-006 9.52674e-006 1.98696e-006 4.63318e-006 -0.0160363 0.0029854 0.000852197 -4.94265e-006 -7.80147e-007 -3.2088e-007 9.52674e-006 1.98696e-006 4.63318e-006 -0.0126105 0.00311735 0.00282775 -1.81264e-006 -3.30001e-006 -2.06007e-006 9.52674e-006 1.98696e-006 4.63318e-006 -1.49499e-005 -5.17832e-006 -5.04997e-006 2.7938e-006 7.67564e-007 3.07023e-006 -27.1975 3.47703 28.4339 -9.60304 -21.3908 23.5998 -20.3403 -41.3179 -17.2895 21.0816 -34.1738 -61.3922 1.03375e-005 -6.66979e-006 -6.41246e-008 -9.54166e-015 0 -3.18055e-015 -1.03375e-005 6.66979e-006 6.41258e-008 1.03375e-005 -6.66979e-006 -6.41246e-008 0.0129005 0.00231553 -8.67131e-005 -4.83198e-006 -4.09329e-006 -7.75124e-006 1.03375e-005 -6.66979e-006 -6.41246e-008 0.0163282 0.0030397 -0.000872273 -8.53897e-007 -7.69736e-006 -4.93907e-006 1.03375e-005 -6.66979e-006 -6.41246e-008 0.0145767 0.00369395 -0.0032546 6.36111e-015 3.18055e-015 9.54166e-015 1.03375e-005 -6.66979e-006 -6.41246e-008 -9.54166e-015 0 -3.18055e-015 -1.03375e-005 6.66979e-006 6.41258e-008 3.68103 -11.8545 6.675 174.079 83.8731 -175.943 0.309326 20.1078 2.75765 1.11655e-008 -5.63231e-010 2.12913e-007 -3.68644 -11.9539 -6.69402 -174.125 83.825 175.976 -0.322031 20.1598 -2.76386 -2.57804e-006 2.22612e-008 5.30243e-007 
